<svg width="221" height="60" viewBox="0 0 221 60" fill="none" xmlns="http://www.w3.org/2000/svg">
<path d="M29.906 1.38358C30.5257 -1.04506 3.7103 -0.677943 0.471053 19.8243C-2.7682 40.2418 26.6104 51.4249 27.1456 49.3069C27.1456 49.3069 23.2866 44.2237 22.7515 40.3266C22.1318 36.4859 21.9628 34.5374 21.9628 34.5374C21.9628 34.5374 19.2024 36.26 13.0619 32.8712C6.89322 29.4542 6.41437 25.1052 6.52704 25.1052C6.63971 25.1052 10.386 21.1516 13.4844 19.8808C16.611 18.61 18.9207 18.6665 18.9207 18.6665C18.9207 18.6665 18.1883 15.7013 19.2305 12.3125C20.9487 6.63622 29.906 1.38358 29.906 1.38358Z" fill="white"/>
<path d="M29.4594 8.04828C29.4594 8.04828 32.9521 13.1315 33.0085 15.4472C33.0085 17.8193 31.0649 22.253 31.2339 22.959C31.4029 23.6085 35.5717 19.0336 39.1208 19.0336C43.2051 19.0901 45.543 22.6201 45.543 22.6201C45.543 22.6201 42.191 29.7366 40.3602 29.8778C38.5293 30.019 32.924 29.2283 32.5578 29.5672C32.248 29.8778 35.7971 34.5657 34.3323 36.9661C32.924 39.3382 27.3187 42.4164 27.3187 42.4164C27.3187 42.4164 25.1779 38.6887 24.9526 36.3165C24.6991 34.0009 25.2624 28.6635 25.5723 28.1552C25.9385 27.5904 22.5302 33.2384 18.6713 31.6287C14.8124 30.019 10.0521 26.0372 10.0521 26.0372C10.0521 26.0372 16.3897 21.9141 17.7418 21.8012C19.0938 21.6035 23.1781 21.4905 23.1781 21.4905C23.1781 21.4905 21.7415 18.2712 22.502 15.0518C23.3752 11.0417 28.727 7.53996 29.4594 8.04828Z" fill="white"/>
<path d="M41.0081 13.1316C43.4024 13.1316 45.4022 11.0701 45.4022 8.58497C45.4022 6.01513 43.3742 3.95361 41.0081 3.95361C38.6139 3.95361 36.614 6.01513 36.614 8.58497C36.614 11.0701 38.6139 13.1316 41.0081 13.1316Z" fill="white"/>
<path d="M53.627 56.395C53.627 58.5978 52.8947 59.1626 51.6553 59.1626C51.2046 59.1626 50.8666 59.0778 50.6131 58.9649L50.4723 59.5297C50.7258 59.6426 51.2328 59.7556 51.6835 59.7556C53.0919 59.7556 54.3594 59.0778 54.3594 56.5362V49.7021H53.6552V56.395H53.627Z" fill="white"/>
<path d="M61.9928 52.5542H61.2886V56.9314C61.2886 57.2138 61.2322 57.4962 61.1477 57.7221C60.8379 58.4281 60.1055 59.1341 59.0634 59.1341C57.6831 59.1341 57.2043 58.0328 57.2043 56.5078V52.5542H56.5001V56.649C56.5001 59.3036 58.0212 59.7554 58.8943 59.7554C60.1337 59.7554 60.9506 58.9929 61.2886 58.3434H61.3167L61.3731 59.6142H62.0209C61.9646 59.0776 61.9646 58.5128 61.9646 57.8916V52.5542H61.9928Z" fill="white"/>
<path d="M64.2743 59.5859H64.9785V55.2087C64.9785 54.9828 65.0349 54.7568 65.063 54.5874C65.3447 53.6555 66.1897 52.9495 67.1756 52.9495C68.6121 52.9495 69.1191 54.1073 69.1191 55.4064V59.5859H69.8233V55.3499C69.8233 52.6953 68.0488 52.3564 67.3728 52.3564C66.2179 52.3564 65.3447 52.9777 64.9504 53.7684H64.9222L64.8659 52.4976H64.218C64.2744 53.0624 64.2743 53.5425 64.2743 54.192V59.5859Z" fill="white"/>
<path d="M72.3584 51.2551V52.5542H71.1754V53.119H72.3584V57.5809C72.3584 58.2869 72.4711 58.9082 72.8091 59.2753C73.0626 59.5859 73.4851 59.7554 74.0203 59.7554C74.4428 59.7554 74.7808 59.6707 75.0061 59.5859L74.9216 59.0494C74.7526 59.1059 74.4709 59.1623 74.1048 59.1623C73.3442 59.1623 73.0907 58.5975 73.0907 57.7221V53.119H75.0906V52.5542H73.0907V51.001L72.3584 51.2551Z" fill="white"/>
<path d="M79.1467 59.1624C77.7102 59.1624 76.6116 57.8351 76.6116 56.0842C76.6116 54.5592 77.4285 52.9778 79.2312 52.9778C81.0902 52.9778 81.8226 54.7569 81.8226 56.056C81.7663 57.8633 80.6114 59.1624 79.1467 59.1624ZM79.1185 59.7554C80.6677 59.7554 82.4704 58.6258 82.4704 55.9995C82.4704 53.8532 81.1466 52.3848 79.203 52.3848C77.4566 52.3848 75.8793 53.712 75.8793 56.1407C75.8793 58.3434 77.2876 59.7554 79.1185 59.7554Z" fill="white"/>
<path d="M83.6816 59.2471C84.1605 59.5295 84.8083 59.7272 85.4562 59.7272C86.8927 59.7272 87.8222 58.9082 87.8222 57.7221C87.8222 56.649 87.1462 56.0842 85.9914 55.6324C85.0337 55.237 84.5548 54.9264 84.5548 54.1921C84.5548 53.5426 85.0337 52.9778 85.9069 52.9778C86.6111 52.9778 87.0617 53.232 87.3152 53.4014L87.5687 52.8366C87.2307 52.5824 86.6674 52.3848 86.0195 52.3848C84.6675 52.3848 83.8506 53.2602 83.8506 54.3051C83.8506 55.1523 84.4703 55.8018 85.6252 56.2254C86.6392 56.649 87.1181 57.0444 87.1181 57.8351C87.1181 58.5693 86.5829 59.1624 85.4844 59.1624C84.8647 59.1624 84.2732 58.9082 83.907 58.6823L83.6816 59.2471Z" fill="white"/>
<path d="M97.3992 58.7388C97.0049 58.9083 96.4697 59.1624 95.6528 59.1624C94.0191 59.1624 92.8643 57.9481 92.8643 56.1125C92.8643 54.4464 93.822 53.0061 95.7092 53.0061C96.4979 53.0061 97.0331 53.2038 97.3711 53.4297L97.6246 52.8649C97.3711 52.6672 96.6387 52.4131 95.7655 52.4131C93.6811 52.4131 92.1601 53.938 92.1601 56.169C92.1601 58.287 93.5121 59.7555 95.5402 59.7555C96.5542 59.7555 97.2866 59.4448 97.5964 59.3036L97.3992 58.7388Z" fill="white"/>
<path d="M101.878 59.1624C100.441 59.1624 99.3428 57.8351 99.3428 56.0842C99.3428 54.5592 100.16 52.9778 101.962 52.9778C103.821 52.9778 104.554 54.7569 104.554 56.056C104.526 57.8633 103.343 59.1624 101.878 59.1624ZM101.85 59.7554C103.399 59.7554 105.202 58.6258 105.202 55.9995C105.202 53.8532 103.878 52.3848 101.934 52.3848C100.188 52.3848 98.6104 53.712 98.6104 56.1407C98.6386 58.3434 100.019 59.7554 101.85 59.7554Z" fill="white"/>
<path d="M106.948 59.5859H107.652V55.2087C107.652 54.9828 107.708 54.7568 107.737 54.5874C108.018 53.6555 108.863 52.9495 109.849 52.9495C111.286 52.9495 111.793 54.1073 111.793 55.4064V59.5859H112.497V55.3499C112.497 52.6953 110.722 52.3564 110.046 52.3564C108.891 52.3564 108.018 52.9777 107.624 53.7684H107.596L107.539 52.5541H106.892C106.948 53.1189 106.948 53.599 106.948 54.2485V59.5859Z" fill="white"/>
<path d="M115.004 51.2551V52.5542H113.821V53.119H115.004V57.5809C115.004 58.2869 115.116 58.9082 115.454 59.2753C115.708 59.5859 116.13 59.7554 116.666 59.7554C117.088 59.7554 117.426 59.6707 117.652 59.5859L117.567 59.0494C117.398 59.1059 117.116 59.1623 116.75 59.1623C115.99 59.1623 115.736 58.5975 115.736 57.7221V53.119H117.736V52.5542H115.708V51.001L115.004 51.2551Z" fill="white"/>
<path d="M119.201 59.586H119.905V55.6889C119.905 55.4629 119.933 55.2088 119.961 55.0111C120.158 53.8815 120.834 53.0343 121.82 53.0343C121.961 53.0343 122.046 53.0343 122.158 53.0625V52.413C122.074 52.3848 121.961 52.3848 121.877 52.3848C120.919 52.3848 120.187 53.0625 119.877 53.9662H119.82L119.792 52.5542H119.144C119.201 53.232 119.201 53.9662 119.201 54.6722V59.586Z" fill="white"/>
<path d="M127.172 57.3268C127.172 57.4397 127.172 57.6092 127.088 57.7504C126.862 58.4281 126.186 59.1624 125.003 59.1624C124.271 59.1624 123.595 58.7105 123.595 57.6939C123.595 55.9995 125.623 55.7736 127.144 55.8018V57.3268H127.172ZM127.876 55.1523C127.876 53.9097 127.482 52.3848 125.454 52.3848C124.834 52.3848 124.045 52.5542 123.398 52.9778L123.623 53.4861C124.13 53.119 124.778 52.9496 125.397 52.9496C127.059 52.9496 127.2 54.3333 127.2 55.0111V55.2088C124.327 55.1805 122.919 56.1689 122.919 57.8069C122.919 58.7388 123.567 59.7554 124.975 59.7554C126.102 59.7554 126.89 59.1341 127.228 58.5693H127.257L127.369 59.586H128.017C127.933 59.0494 127.904 58.4564 127.904 57.9198V55.1523H127.876Z" fill="white"/>
<path d="M133.341 55.4347C133.482 54.3333 134.129 52.9778 135.679 52.9778C137.369 52.9778 137.791 54.4745 137.763 55.4347H133.341ZM138.495 55.9995C138.524 55.8583 138.524 55.7736 138.524 55.5759C138.524 54.5592 138.073 52.3848 135.791 52.3848C133.96 52.3848 132.637 53.8532 132.637 56.1972C132.637 58.2587 133.904 59.7272 135.904 59.7272C137.143 59.7272 137.848 59.4165 138.129 59.2753L137.96 58.7388C137.566 58.9364 137.031 59.1341 136.017 59.1341C134.58 59.1341 133.341 58.2304 133.341 55.9995H138.495Z" fill="white"/>
<path d="M140.946 49.1655H140.242V59.6143H140.946V49.1655Z" fill="white"/>
<path d="M151.114 58.372C150.748 58.5414 150.269 58.7109 149.537 58.7109C148.129 58.7109 147.086 57.6942 147.086 56.0563C147.086 54.5878 147.96 53.3735 149.593 53.3735C150.297 53.3735 150.776 53.5429 151.086 53.7124L151.368 52.724C151.03 52.5263 150.354 52.3286 149.593 52.3286C147.284 52.3286 145.791 53.9383 145.791 56.1128C145.791 58.2873 147.171 59.7275 149.312 59.7275C150.269 59.7275 151.002 59.4733 151.34 59.3039L151.114 58.372Z" fill="white"/>
<path d="M155.762 49.4194L154.494 51.5092H155.396L157.17 49.4194H155.762ZM156.551 57.2137C156.551 57.3266 156.523 57.4678 156.494 57.6373C156.297 58.2303 155.677 58.8234 154.748 58.8234C154.1 58.8234 153.537 58.4562 153.537 57.5808C153.537 56.197 155.142 55.9429 156.551 55.9711V57.2137ZM157.79 55.2369C157.79 53.8249 157.255 52.3564 155.086 52.3564C154.185 52.3564 153.34 52.6106 152.748 52.9777L153.03 53.8531C153.537 53.5142 154.213 53.3166 154.889 53.3166C156.325 53.3166 156.494 54.3614 156.494 54.9545V55.0957C153.762 55.0674 152.241 56.0276 152.241 57.7502C152.241 58.7669 152.973 59.7835 154.41 59.7835C155.424 59.7835 156.185 59.2752 156.579 58.7386H156.635L156.748 59.6423H157.903C157.818 59.1622 157.79 58.5692 157.79 57.9479V55.2369Z" fill="white"/>
<path d="M159.818 59.5863H161.114V55.3221C161.114 55.0961 161.142 54.8702 161.198 54.729C161.424 54.023 162.1 53.4017 162.916 53.4017C164.128 53.4017 164.55 54.3619 164.55 55.4915V59.5863H165.846V55.3503C165.846 52.9217 164.325 52.3286 163.339 52.3286C162.156 52.3286 161.339 52.9781 161.001 53.6559H160.973L160.888 52.4698H159.734C159.79 53.0629 159.79 53.6559 159.79 54.3901V59.5863H159.818Z" fill="white"/>
<path d="M172.719 58.372C172.353 58.5414 171.874 58.7109 171.141 58.7109C169.733 58.7109 168.691 57.6942 168.691 56.0563C168.691 54.5878 169.564 53.3735 171.198 53.3735C171.902 53.3735 172.381 53.5429 172.691 53.7124L172.972 52.724C172.606 52.5263 171.958 52.3286 171.198 52.3286C168.888 52.3286 167.395 53.9383 167.395 56.1128C167.395 58.2873 168.775 59.7275 170.916 59.7275C171.874 59.7275 172.606 59.4733 172.944 59.3039L172.719 58.372Z" fill="white"/>
<path d="M175.057 55.3499C175.169 54.4462 175.705 53.2601 177.028 53.2601C178.465 53.2601 178.831 54.5309 178.803 55.3499H175.057ZM180.014 56.2818C180.042 56.1406 180.07 55.9429 180.07 55.6888C180.07 54.3897 179.479 52.3564 177.141 52.3564C175.085 52.3564 173.817 54.0226 173.817 56.1688C173.817 58.3151 175.113 59.7553 177.31 59.7553C178.437 59.7553 179.225 59.5012 179.676 59.3035L179.451 58.3716C178.972 58.5692 178.409 58.7387 177.479 58.7387C176.183 58.7387 175.085 58.0327 175.057 56.2818H180.014Z" fill="white"/>
<path d="M181.591 59.5859H182.887V55.8017C182.887 55.604 182.915 55.3781 182.944 55.2087C183.113 54.2485 183.76 53.5708 184.662 53.5708C184.831 53.5708 184.972 53.5708 185.112 53.599V52.3847C185 52.3564 184.887 52.3564 184.746 52.3564C183.873 52.3564 183.084 52.9495 182.775 53.9096H182.718L182.662 52.4976H181.535C181.591 53.1472 181.591 53.8814 181.591 54.7286V59.5859Z" fill="white"/>
<path d="M207.872 28.6072C209.534 28.6072 210.801 28.0989 211.646 27.054C212.378 26.1786 212.773 24.9925 212.773 23.4958C212.773 21.999 212.407 20.813 211.646 19.9375C210.773 18.9209 209.534 18.3843 207.872 18.3843H185.084V28.579H207.872V28.6072ZM208.829 12.9058C213.73 12.9058 217.111 14.5154 218.941 17.7066C219.871 19.3162 220.322 21.2366 220.322 23.4958C220.322 28.0989 218.547 31.2053 214.998 32.8715C213.252 33.6904 211.195 34.0858 208.858 34.0858H185.112V47.1044H177.93V12.9058H208.829Z" fill="white"/>
<path d="M96.3852 39.7338C93.7375 39.7338 91.6531 38.9995 90.1321 37.5593C88.611 36.1191 87.8787 34.0858 87.8787 31.4877C87.8787 28.8896 88.6392 26.8563 90.1321 25.4443C91.6531 24.0041 93.6811 23.2698 96.3007 23.2698H120.327V21.9708C120.327 20.1917 119.68 19.1186 118.356 18.7232C117.961 18.6102 117.342 18.5538 116.497 18.5538H89.5687V12.9058H118.271C121.116 12.9058 123.37 13.64 125.031 15.1367C126.074 16.0686 126.778 17.1418 127.144 18.3843C127.397 19.3162 127.538 21.6602 127.538 23.3263V39.7338H96.3852ZM120.356 34.0575V28.6072H97.3711C95.85 28.6072 95.0895 29.5391 95.0895 31.3747C95.0895 33.1821 95.85 34.0575 97.3711 34.0575H120.356Z" fill="white"/>
<path d="M82.1888 12.9057V18.5254H63.9927C63.4575 18.5254 62.9786 18.5537 62.5843 18.6102C62.3026 18.6949 61.9646 18.8643 61.5984 19.1185C60.9788 19.6833 60.6408 20.587 60.6408 21.8295V23.0156L82.1888 22.9309V28.5789L60.6408 28.6636V46.9914H53.4581V28.6636H48.9513V23.0156H53.4581V20.0786C53.4581 18.8078 53.5707 17.763 53.7961 16.944C54.0214 16.0686 54.5003 15.2778 55.2045 14.5718C55.9086 13.8658 56.6973 13.3858 57.5142 13.1881C58.331 12.9904 59.3732 12.8774 60.6126 12.8774L82.1888 12.9057Z" fill="white"/>
<path d="M146.636 39.7338C141.143 39.7338 137.594 37.5028 136.017 33.0127C135.425 31.29 135.115 29.4827 135.115 27.5906V12.9058H142.946V26.8281C142.946 28.6919 143.509 30.1604 144.664 31.2335C145.594 32.109 146.889 32.5326 148.607 32.5326H171.113V39.7338H146.636Z" fill="white"/>
</svg>
